<svg xmlns="http://www.w3.org/2000/svg" xmlns:xlink="http://www.w3.org/1999/xlink" width="829" height="161"><g transform="translate(-463 -526)"><path d="M480 666.8c0 1.66 1.34 3 3 3h114c1.66 0 3-1.34 3-3v-114c0-1.66-1.34-3-3-3H483c-1.66 0-3 1.34-3 3z" stroke="#00987e" stroke-width="4" fill="#95d6cb"/><use xlink:href="#a" transform="matrix(1,0,0,1,485,554.8) translate(3.1000000000000014 58.6)"/><path d="M600 667c0 1.66 1.34 3 3 3h114c1.66 0 3-1.34 3-3V553c0-1.66-1.34-3-3-3H603c-1.66 0-3 1.34-3 3z" stroke="#00987e" stroke-width="4" fill="#95d6cb"/><use xlink:href="#b" transform="matrix(1,0,0,1,605,555) translate(19.025 58.6)"/><path d="M720 667c0 1.66 1.34 3 3 3h134c1.66 0 3-1.34 3-3V553c0-1.66-1.34-3-3-3H723c-1.66 0-3 1.34-3 3z" stroke="#00987e" stroke-width="4" fill="#95d6cb"/><use xlink:href="#c" transform="matrix(1,0,0,1,725,555) translate(1.5499999999999972 58.6)"/><path d="M860 667c0 1.66 1.34 3 3 3h94c1.66 0 3-1.34 3-3V553c0-1.66-1.34-3-3-3h-94c-1.66 0-3 1.34-3 3z" stroke="#00987e" stroke-width="4" fill="#95d6cb"/><use xlink:href="#d" transform="matrix(1,0,0,1,865,555) translate(10 58.6)"/><path d="M960 667c0 1.66 1.34 3 3 3h94c1.66 0 3-1.34 3-3V553c0-1.66-1.34-3-3-3h-94c-1.66 0-3 1.34-3 3z" stroke="#00987e" stroke-width="4" fill="#95d6cb"/><use xlink:href="#e" transform="matrix(1,0,0,1,965,555) translate(1.0499999999999972 58.6)"/><path d="M1060 667c0 1.66 1.34 3 3 3h214c1.66 0 3-1.34 3-3V553c0-1.66-1.34-3-3-3h-214c-1.66 0-3 1.34-3 3z" stroke="#00987e" stroke-width="4" fill="#95d6cb"/><use xlink:href="#f" transform="matrix(1,0,0,1,1065,555) translate(68.525 58.6)"/><defs><path fill="#303030" d="M114-163C36-179 61-72 57 0H25l-1-190h30c1 12-1 29 2 39 6-27 23-49 58-41v29" id="g"/><path fill="#303030" d="M100-194c63 0 86 42 84 106H49c0 40 14 67 53 68 26 1 43-12 49-29l28 8c-11 28-37 45-77 45C44 4 14-33 15-96c1-61 26-98 85-98zm52 81c6-60-76-77-97-28-3 7-6 17-6 28h103" id="h"/><path fill="#303030" d="M177-190C167-65 218 103 67 71c-23-6-38-20-44-43l32-5c15 47 100 32 89-28v-30C133-14 115 1 83 1 29 1 15-40 15-95c0-56 16-97 71-98 29-1 48 16 59 35 1-10 0-23 2-32h30zM94-22c36 0 50-32 50-73 0-42-14-75-50-75-39 0-46 34-46 75s6 73 46 73" id="i"/><path fill="#303030" d="M24-231v-30h32v30H24zM24 0v-190h32V0H24" id="j"/><path fill="#303030" d="M135-143c-3-34-86-38-87 0 15 53 115 12 119 90S17 21 10-45l28-5c4 36 97 45 98 0-10-56-113-15-118-90-4-57 82-63 122-42 12 7 21 19 24 35" id="k"/><path fill="#303030" d="M59-47c-2 24 18 29 38 22v24C64 9 27 4 27-40v-127H5v-23h24l9-43h21v43h35v23H59v120" id="l"/><path fill="#303030" d="M141-36C126-15 110 5 73 4 37 3 15-17 15-53c-1-64 63-63 125-63 3-35-9-54-41-54-24 1-41 7-42 31l-33-3c5-37 33-52 76-52 45 0 72 20 72 64v82c-1 20 7 32 28 27v20c-31 9-61-2-59-35zM48-53c0 20 12 33 32 33 41-3 63-29 60-74-43 2-92-5-92 41" id="m"/><path fill="#303030" d="M100-194c62-1 85 37 85 99 1 63-27 99-86 99S16-35 15-95c0-66 28-99 85-99zM99-20c44 1 53-31 53-75 0-43-8-75-51-75s-53 32-53 75 10 74 51 75" id="n"/><path fill="#303030" d="M117-194c89-4 53 116 60 194h-32v-121c0-31-8-49-39-48C34-167 62-67 57 0H25l-1-190h30c1 10-1 24 2 32 11-22 29-35 61-36" id="o"/><path fill="#303030" d="M33 0v-248h34V0H33" id="p"/><path fill="#303030" d="M85-194c31 0 48 13 60 33l-1-100h32l1 261h-30c-2-10 0-23-3-31C134-8 116 4 85 4 32 4 16-35 15-94c0-66 23-100 70-100zm9 24c-40 0-46 34-46 75 0 40 6 74 45 74 42 0 51-32 51-76 0-42-9-74-50-73" id="q"/><g id="a"><use transform="matrix(0.05,0,0,0.05,0,0)" xlink:href="#g"/><use transform="matrix(0.05,0,0,0.05,5.95,0)" xlink:href="#h"/><use transform="matrix(0.05,0,0,0.05,15.949999999999998,0)" xlink:href="#i"/><use transform="matrix(0.05,0,0,0.05,25.950000000000003,0)" xlink:href="#j"/><use transform="matrix(0.05,0,0,0.05,29.899999999999995,0)" xlink:href="#k"/><use transform="matrix(0.05,0,0,0.05,38.9,0)" xlink:href="#l"/><use transform="matrix(0.05,0,0,0.05,43.9,0)" xlink:href="#g"/><use transform="matrix(0.05,0,0,0.05,49.85,0)" xlink:href="#m"/><use transform="matrix(0.05,0,0,0.05,59.85,0)" xlink:href="#l"/><use transform="matrix(0.05,0,0,0.05,64.85,0)" xlink:href="#j"/><use transform="matrix(0.05,0,0,0.05,68.8,0)" xlink:href="#n"/><use transform="matrix(0.05,0,0,0.05,78.8,0)" xlink:href="#o"/><use transform="matrix(0.05,0,0,0.05,88.8,0)" xlink:href="#p"/><use transform="matrix(0.05,0,0,0.05,93.8,0)" xlink:href="#q"/></g><path fill="#303030" d="M115-194c55 1 70 41 70 98S169 2 115 4C84 4 66-9 55-30l1 105H24l-1-265h31l2 30c10-21 28-34 59-34zm-8 174c40 0 45-34 45-75s-6-73-45-74c-42 0-51 32-51 76 0 43 10 73 51 73" id="r"/><path fill="#303030" d="M194 0L95-120 63-95V0H30v-248h33v124l119-124h40L117-140 236 0h-42" id="s"/><path fill="#303030" d="M179-190L93 31C79 59 56 82 12 73V49c39 6 53-20 64-50L1-190h34L92-34l54-156h33" id="t"/><g id="b"><use transform="matrix(0.05,0,0,0.05,0,0)" xlink:href="#r"/><use transform="matrix(0.05,0,0,0.05,10,0)" xlink:href="#g"/><use transform="matrix(0.05,0,0,0.05,15.949999999999998,0)" xlink:href="#h"/><use transform="matrix(0.05,0,0,0.05,25.950000000000003,0)" xlink:href="#s"/><use transform="matrix(0.05,0,0,0.05,37.95,0)" xlink:href="#h"/><use transform="matrix(0.05,0,0,0.05,47.95,0)" xlink:href="#t"/><use transform="matrix(0.05,0,0,0.05,56.95,0)" xlink:href="#p"/><use transform="matrix(0.05,0,0,0.05,61.95,0)" xlink:href="#q"/></g><path fill="#303030" d="M30-248c87 1 191-15 191 75 0 78-77 80-158 76V0H30v-248zm33 125c57 0 124 11 124-50 0-59-68-47-124-48v98" id="u"/><g id="c"><use transform="matrix(0.05,0,0,0.05,0,0)" xlink:href="#k"/><use transform="matrix(0.05,0,0,0.05,9,0)" xlink:href="#j"/><use transform="matrix(0.05,0,0,0.05,12.949999999999998,0)" xlink:href="#i"/><use transform="matrix(0.05,0,0,0.05,22.95,0)" xlink:href="#o"/><use transform="matrix(0.05,0,0,0.05,32.95,0)" xlink:href="#h"/><use transform="matrix(0.05,0,0,0.05,42.95,0)" xlink:href="#q"/><use transform="matrix(0.05,0,0,0.05,52.95,0)" xlink:href="#u"/><use transform="matrix(0.05,0,0,0.05,64.95,0)" xlink:href="#g"/><use transform="matrix(0.05,0,0,0.05,70.9,0)" xlink:href="#h"/><use transform="matrix(0.05,0,0,0.05,80.9,0)" xlink:href="#s"/><use transform="matrix(0.05,0,0,0.05,92.9,0)" xlink:href="#h"/><use transform="matrix(0.05,0,0,0.05,102.9,0)" xlink:href="#t"/><use transform="matrix(0.05,0,0,0.05,111.9,0)" xlink:href="#p"/><use transform="matrix(0.05,0,0,0.05,116.9,0)" xlink:href="#q"/></g><path fill="#303030" d="M115-194c53 0 69 39 70 98 0 66-23 100-70 100C84 3 66-7 56-30L54 0H23l1-261h32v101c10-23 28-34 59-34zm-8 174c40 0 45-34 45-75 0-40-5-75-45-74-42 0-51 32-51 76 0 43 10 73 51 73" id="v"/><g id="d"><use transform="matrix(0.05,0,0,0.05,0,0)" xlink:href="#v"/><use transform="matrix(0.05,0,0,0.05,10,0)" xlink:href="#m"/><use transform="matrix(0.05,0,0,0.05,20,0)" xlink:href="#k"/><use transform="matrix(0.05,0,0,0.05,29,0)" xlink:href="#h"/><use transform="matrix(0.05,0,0,0.05,39,0)" xlink:href="#s"/><use transform="matrix(0.05,0,0,0.05,51,0)" xlink:href="#h"/><use transform="matrix(0.05,0,0,0.05,61,0)" xlink:href="#t"/></g><g id="e"><use transform="matrix(0.05,0,0,0.05,0,0)" xlink:href="#j"/><use transform="matrix(0.05,0,0,0.05,3.95,0)" xlink:href="#q"/><use transform="matrix(0.05,0,0,0.05,13.949999999999998,0)" xlink:href="#h"/><use transform="matrix(0.05,0,0,0.05,23.95,0)" xlink:href="#o"/><use transform="matrix(0.05,0,0,0.05,33.95,0)" xlink:href="#l"/><use transform="matrix(0.05,0,0,0.05,38.95,0)" xlink:href="#j"/><use transform="matrix(0.05,0,0,0.05,42.900000000000006,0)" xlink:href="#l"/><use transform="matrix(0.05,0,0,0.05,47.900000000000006,0)" xlink:href="#t"/><use transform="matrix(0.05,0,0,0.05,56.900000000000006,0)" xlink:href="#s"/><use transform="matrix(0.05,0,0,0.05,68.9,0)" xlink:href="#h"/><use transform="matrix(0.05,0,0,0.05,78.9,0)" xlink:href="#t"/></g><path fill="#303030" d="M210-169c-67 3-38 105-44 169h-31v-121c0-29-5-50-35-48C34-165 62-65 56 0H25l-1-190h30c1 10-1 24 2 32 10-44 99-50 107 0 11-21 27-35 58-36 85-2 47 119 55 194h-31v-121c0-29-5-49-35-48" id="w"/><g id="f"><use transform="matrix(0.05,0,0,0.05,0,0)" xlink:href="#w"/><use transform="matrix(0.05,0,0,0.05,14.950000000000001,0)" xlink:href="#h"/><use transform="matrix(0.05,0,0,0.05,24.950000000000003,0)" xlink:href="#k"/><use transform="matrix(0.05,0,0,0.05,33.95,0)" xlink:href="#k"/><use transform="matrix(0.05,0,0,0.05,42.95,0)" xlink:href="#m"/><use transform="matrix(0.05,0,0,0.05,52.95,0)" xlink:href="#i"/><use transform="matrix(0.05,0,0,0.05,62.95,0)" xlink:href="#h"/></g></defs></g></svg>